<svg height="512" viewBox="0 0 64 64" width="512" xmlns="http://www.w3.org/2000/svg"><g id="Twotone"><g id="Color_copy_2" data-name="Color copy 2"><path d="m18 57-6-39h44l-6 39z" fill="#fff"/><path d="m50.92 51-.92 6h-32l-6-39h14v17a16 16 0 0 0 16 16z" fill="#cff09e"/><path d="m61 3h-11.186a4 4 0 0 0 -3.765 2.649l-13.049 36.351h5l12.18-35h10.82z" fill="#fff"/><path d="m38 42 12.18-35h10.82v-2h-9.186a4 4 0 0 0 -3.765 2.648l-12.331 34.352z" fill="#cff09e"/><path d="m54.31 29-4.31 28h-32l-4.31-28 6.143.5a40.973 40.973 0 0 0 12.207-.841l1.708-.38a40.982 40.982 0 0 1 20.336.656z" fill="#a8dba8"/><circle cx="13" cy="19" fill="#79bd9a" r="10"/><circle cx="13" cy="19" fill="#cff09e" r="6"/><path d="m40 43h6v6h-6z" fill="#fff"/><path d="m43 33h6v6h-6z" fill="#fff" transform="matrix(.919 .395 -.395 .919 17.945 -15.234)"/><path d="m31 33h6v6h-6z" fill="#fff" transform="matrix(.707 .707 -.707 .707 35.414 -13.497)"/><path d="m22.927 35.93 14.143 14.143a10 10 0 0 1 -14.143-14.143z" fill="#79bd9a"/><path d="m34.241 47.244a6 6 0 0 1 -8.485-8.485z" fill="#cff09e"/><path d="m25.756 38.759 8.485 8.485" fill="#95d5b2"/><g fill="#cff09e"><path d="m18 57h32v4h-32z"/><path d="m46 47v2h-6v-6h2v1a3 3 0 0 0 3 3z"/><path d="m49.94 34.43-2.37 5.51-5.51-2.37.73-1.69 2.03.88a3 3 0 0 0 3.94-1.58l.46-1.06z"/><path d="m38.24 36-4.24 4.24-4.24-4.24 1-1 1.12 1.12a3 3 0 0 0 4.24 0l1.12-1.12z"/></g></g><g id="Stroke_Close_copy" fill="#3b8686" data-name="Stroke Close copy"><path d="m61 2h-11.186a5.013 5.013 0 0 0 -4.707 3.311l-4.195 11.689h-17.1a11 11 0 1 0 -10.979 12.992l4.167 27.084v3.924a1 1 0 0 0 1 1h32a1 1 0 0 0 1-1v-3.924l5.988-38.924a1 1 0 0 0 -.988-1.152h-8.241l3.132-9h10.109a1 1 0 0 0 1-1v-4a1 1 0 0 0 -1-1zm-20.806 17-2.745 7.647c-1.314.163-2.623.367-3.918.655l-1.708.38a39.868 39.868 0 0 1 -11.908.82l-1.234-.1a11 11 0 0 0 5.319-9.402zm12.989 10.734-4.041 26.266h-30.284l-3.985-25.9 4.879.4q1.7.138 3.405.138a41.952 41.952 0 0 0 9.1-1l1.708-.38a40.056 40.056 0 0 1 19.218.476zm-49.183-10.734a9 9 0 1 1 9 9 9.01 9.01 0 0 1 -9-9zm45 41h-30v-2h30zm5.834-41-1.346 8.75a41.865 41.865 0 0 0 -8.988-1.389l2.563-7.361zm5.166-13h-9.82a1 1 0 0 0 -.945.671l-6.835 19.656q-1.373.007-2.743.1l7.333-20.441a3.007 3.007 0 0 1 2.824-1.986h10.186z"/><path d="m20 19a7 7 0 1 0 -7 7 7.008 7.008 0 0 0 7-7zm-12 0a4.918 4.918 0 0 1 .278-1.572l2.722 1.572-2.722 1.572a4.918 4.918 0 0 1 -.278-1.572zm10 0a4.918 4.918 0 0 1 -.278 1.572l-2.722-1.572 2.722-1.572a4.918 4.918 0 0 1 .278 1.572zm-4 4.9v-3.168l2.723 1.568a4.979 4.979 0 0 1 -2.723 1.6zm2.723-8.2-2.723 1.568v-3.168a4.979 4.979 0 0 1 2.723 1.6zm-4.723-1.6v3.167l-2.723-1.567a4.979 4.979 0 0 1 2.723-1.6zm-2.723 8.2 2.723-1.568v3.168a4.979 4.979 0 0 1 -2.723-1.6z"/><path d="m46 42h-6a1 1 0 0 0 -1 1v6a1 1 0 0 0 1 1h6a1 1 0 0 0 1-1v-6a1 1 0 0 0 -1-1zm-1 6h-4v-4h4z"/><path d="m41.665 38.491 5.513 2.368a1 1 0 0 0 1.313-.524l2.368-5.513a1 1 0 0 0 -.524-1.313l-5.513-2.368a1 1 0 0 0 -1.313.524l-2.368 5.513a1 1 0 0 0 .524 1.313zm3.287-5.118 3.675 1.579-1.579 3.675-3.675-1.579z"/><path d="m38.949 35.293-4.242-4.242a1 1 0 0 0 -1.414 0l-4.243 4.242a1 1 0 0 0 0 1.414l4.243 4.242a1 1 0 0 0 1.414 0l4.242-4.242a1 1 0 0 0 0-1.414zm-4.949 3.535-2.829-2.828 2.829-2.828 2.828 2.828z"/><path d="m23.634 35.224a1.029 1.029 0 0 0 -1.414 0 11 11 0 0 0 15.556 15.555 1 1 0 0 0 0-1.414zm1.366 7.776a4.965 4.965 0 0 1 .828-2.756l2.239 2.239-3.039.812c-.006-.095-.028-.195-.028-.295zm3.586 1.414-.812 3.038a4.929 4.929 0 0 1 -1.31-.916 4.986 4.986 0 0 1 -.92-1.309zm1.932.519 2.239 2.239a4.982 4.982 0 0 1 -3.051.8zm-6.883 4.431a9.014 9.014 0 0 1 -.668-11.981l1.433 1.432a6.992 6.992 0 0 0 9.785 9.785l1.431 1.431a9.013 9.013 0 0 1 -11.982-.666z"/><circle cx="19" cy="33" r="1"/><circle cx="26" cy="33" r="1"/><circle cx="36" cy="44" r="1"/></g></g></svg>