<svg id="Capa_1" enable-background="new 0 0 512 512" height="512" viewBox="0 0 512 512" width="512" xmlns="http://www.w3.org/2000/svg"><g><path d="m461.985 0-7.778 108.19c-51.335 24.227-64.005 78.827-130.38 78.827-69.084 0-69.084 43.164-138.168 43.164-66.591 0-95.807-119.51-130.936-164.795l-4.708-65.386z" fill="#f9f6f9"/><path d="m454.212 108.19-10.518 146.172c-1.751 24.374-17.853 44.483-39.683 52.333l-18.306 178.273c-1.576 15.35-14.505 27.032-29.948 27.032h-199.504c-15.432 0-28.371-11.682-29.947-27.032l-18.306-178.273c-21.819-7.85-37.931-27.959-39.682-52.333l-13.59-188.976c61.945 2.895 64.345 43 130.936 43 69.084 0 69.084-43.164 138.168-43.164 66.375-.001 68.971 39.856 130.38 42.968z" fill="#d6f6b2"/><path d="m185.093 65.396 4.172 164.746c-1.174.031-2.38.041-3.606.041-66.591 0-95.807-119.511-130.936-164.798l-4.708-65.385h133.419l1.658 65.386c.001 0 .001 0 .001.01z" fill="#dddaec"/><path d="m220.861 512h-64.613c-15.432 0-28.371-11.682-29.947-27.032l-18.306-178.273c-21.819-7.85-37.931-27.959-39.683-52.333l-13.589-188.976c61.945 2.895 64.345 43 130.936 43h.525l3.698 145.977c.618 24.374 6.294 44.483 13.98 52.333l6.449 178.273c.557 15.349 5.11 27.031 10.55 27.031z" fill="#ccf49f"/><g><path d="m269.608 130.822-39.893 39.893c-18.078 18.078-18.078 47.388 0 65.465l39.893 39.893c18.078 18.078 47.388 18.078 65.465 0l39.893-39.893c18.078-18.078 18.078-47.388 0-65.465l-39.893-39.893c-18.077-18.078-47.387-18.078-65.465 0z" fill="#b3e59f"/><path d="m367.72 243.428-32.642 32.642c-18.08 18.08-47.393 18.08-65.466.007l-39.897-39.897c-18.073-18.073-18.073-47.385.007-65.466l32.642-32.642c-18.073 18.073-18.073 47.386 0 65.458l39.897 39.897c18.073 18.074 47.386 18.074 65.459.001z" fill="#95d6a4"/></g><g><path d="m207.3 316.494-39.893 39.893c-18.078 18.078-18.078 47.388 0 65.465l39.893 39.893c18.078 18.078 47.388 18.078 65.465 0l39.893-39.893c18.078-18.078 18.078-47.388 0-65.465l-39.893-39.893c-18.078-18.078-47.388-18.078-65.465 0z" fill="#b3e59f"/><path d="m305.411 429.101-32.642 32.642c-18.08 18.08-47.393 18.08-65.466.007l-39.897-39.897c-18.073-18.073-18.073-47.385.007-65.466l32.642-32.642c-18.073 18.073-18.073 47.386 0 65.458l39.897 39.897c18.074 18.073 47.386 18.074 65.459.001z" fill="#95d6a4"/></g></g></svg>